<svg width="64" height="64" viewBox="0 0 64 64" fill="none" xmlns="http://www.w3.org/2000/svg">
<rect width="64" height="64" rx="20" fill="white"/>
<path d="M29.75 41C29.75 41.3978 29.592 41.7794 29.3107 42.0607C29.0294 42.342 28.6478 42.5 28.25 42.5H23C22.6022 42.5 22.2206 42.342 21.9393 42.0607C21.658 41.7794 21.5 41.3978 21.5 41C21.5 40.6022 21.658 40.2206 21.9393 39.9393C22.2206 39.658 22.6022 39.5 23 39.5H28.25C28.6478 39.5 29.0294 39.658 29.3107 39.9393C29.592 40.2206 29.75 40.6022 29.75 41ZM41 39.5H35.75C35.3522 39.5 34.9706 39.658 34.6893 39.9393C34.408 40.2206 34.25 40.6022 34.25 41C34.25 41.3978 34.408 41.7794 34.6893 42.0607C34.9706 42.342 35.3522 42.5 35.75 42.5H41C41.3978 42.5 41.7794 42.342 42.0607 42.0607C42.342 41.7794 42.5 41.3978 42.5 41C42.5 40.6022 42.342 40.2206 42.0607 39.9393C41.7794 39.658 41.3978 39.5 41 39.5ZM54.5 48.5C54.5 48.8978 54.342 49.2794 54.0607 49.5607C53.7794 49.842 53.3978 50 53 50H11C10.6022 50 10.2206 49.842 9.93934 49.5607C9.65804 49.2794 9.5 48.8978 9.5 48.5C9.5 48.1022 9.65804 47.7206 9.93934 47.4393C10.2206 47.158 10.6022 47 11 47H14V24.5C14 24.2214 14.0776 23.9484 14.224 23.7114C14.3705 23.4744 14.58 23.2829 14.8292 23.1584C15.0783 23.0338 15.3573 22.981 15.6347 23.0061C15.9122 23.0311 16.1771 23.1329 16.4 23.3L26 30.5V24.5C26 24.2214 26.0776 23.9484 26.224 23.7114C26.3705 23.4744 26.58 23.2829 26.8292 23.1584C27.0783 23.0338 27.3573 22.981 27.6347 23.0061C27.9121 23.0311 28.1771 23.1329 28.4 23.3L35.6637 28.7469L37.8312 13.5762C37.9362 12.8625 38.2936 12.2101 38.8386 11.7374C39.3835 11.2647 40.0799 11.0031 40.8012 11H44.1987C44.9201 11.0031 45.6165 11.2647 46.1614 11.7374C46.7064 12.2101 47.0638 12.8625 47.1687 13.5762L49.9812 33.2881C49.9812 33.2881 49.9962 33.4344 49.9962 33.5V47H52.9962C53.1935 46.9995 53.389 47.0379 53.5714 47.1131C53.7538 47.1883 53.9196 47.2987 54.0593 47.438C54.199 47.5773 54.3098 47.7429 54.3855 47.9251C54.4611 48.1073 54.5 48.3027 54.5 48.5ZM38.4012 30.8L40.0006 32H46.7712L44.1987 14H40.8012L38.4012 30.8ZM17 47H47V35H39.5C39.1754 35 38.8596 34.8947 38.6 34.7L35.9 32.675L29 27.5V33.5C29 33.7786 28.9224 34.0516 28.776 34.2886C28.6295 34.5256 28.42 34.7171 28.1708 34.8416C27.9217 34.9662 27.6427 35.019 27.3653 34.9939C27.0878 34.9689 26.8229 34.8671 26.6 34.7L17 27.5V47Z" fill="url(#paint0_linear_184_6080)"/>
<defs>
<linearGradient id="paint0_linear_184_6080" x1="32" y1="11" x2="32" y2="50" gradientUnits="userSpaceOnUse">
<stop stop-color="#40A9FF"/>
<stop offset="1" stop-color="#1890FF"/>
</linearGradient>
</defs>
</svg>
