<svg width="139" height="44" viewBox="0 0 139 44" fill="none" xmlns="http://www.w3.org/2000/svg">
<path d="M14.5 28C14.5 28.2652 14.3946 28.5196 14.2071 28.7071C14.0196 28.8946 13.7652 29 13.5 29H10C9.73478 29 9.48043 28.8946 9.29289 28.7071C9.10536 28.5196 9 28.2652 9 28C9 27.7348 9.10536 27.4804 9.29289 27.2929C9.48043 27.1054 9.73478 27 10 27H13.5C13.7652 27 14.0196 27.1054 14.2071 27.2929C14.3946 27.4804 14.5 27.7348 14.5 28ZM22 27H18.5C18.2348 27 17.9804 27.1054 17.7929 27.2929C17.6054 27.4804 17.5 27.7348 17.5 28C17.5 28.2652 17.6054 28.5196 17.7929 28.7071C17.9804 28.8946 18.2348 29 18.5 29H22C22.2652 29 22.5196 28.8946 22.7071 28.7071C22.8946 28.5196 23 28.2652 23 28C23 27.7348 22.8946 27.4804 22.7071 27.2929C22.5196 27.1054 22.2652 27 22 27ZM31 33C31 33.2652 30.8946 33.5196 30.7071 33.7071C30.5196 33.8946 30.2652 34 30 34H2C1.73478 34 1.48043 33.8946 1.29289 33.7071C1.10536 33.5196 1 33.2652 1 33C1 32.7348 1.10536 32.4804 1.29289 32.2929C1.48043 32.1054 1.73478 32 2 32H4V17C4 16.8143 4.05171 16.6322 4.14935 16.4743C4.24698 16.3163 4.38668 16.1886 4.55279 16.1056C4.71889 16.0225 4.90484 15.9874 5.08981 16.004C5.27477 16.0207 5.45143 16.0886 5.6 16.2L12 21V17C12 16.8143 12.0517 16.6322 12.1493 16.4743C12.247 16.3163 12.3867 16.1886 12.5528 16.1056C12.7189 16.0225 12.9048 15.9874 13.0898 16.004C13.2748 16.0207 13.4514 16.0886 13.6 16.2L18.4425 19.8312L19.8875 9.7175C19.9575 9.24169 20.1957 8.80675 20.559 8.49162C20.9223 8.17649 21.3866 8.00206 21.8675 8H24.1325C24.6134 8.00206 25.0777 8.17649 25.441 8.49162C25.8043 8.80675 26.0425 9.24169 26.1125 9.7175L27.9875 22.8587C27.9875 22.8587 27.9975 22.9562 27.9975 23V32H29.9975C30.129 31.9997 30.2593 32.0253 30.3809 32.0754C30.5026 32.1255 30.6131 32.1991 30.7062 32.292C30.7993 32.3849 30.8732 32.4952 30.9236 32.6167C30.9741 32.7382 31 32.8685 31 33ZM20.2675 21.2L21.3337 22H25.8475L24.1325 10H21.8675L20.2675 21.2ZM6 32H26V24H21C20.7836 24 20.5731 23.9298 20.4 23.8L18.6 22.45L14 19V23C14 23.1857 13.9483 23.3678 13.8507 23.5257C13.753 23.6837 13.6133 23.8114 13.4472 23.8944C13.2811 23.9775 13.0952 24.0126 12.9102 23.996C12.7252 23.9793 12.5486 23.9114 12.4 23.8L6 19V32Z" fill="url(#paint0_linear_154_9002)"/>
<path d="M48.3984 30H44.7984V18.8H40.5984V16H52.5984V18.8H48.3984V30ZM57.9008 21.7C57.3674 21.7 57.1008 21.9667 57.1008 22.5V23.6H60.5008V22.5C60.5008 21.9667 60.2341 21.7 59.7008 21.7H57.9008ZM63.6008 29.8C61.0274 30.0667 58.6941 30.2 56.6008 30.2C55.6941 30.2 54.9674 29.9267 54.4208 29.38C53.8741 28.8333 53.6008 28.1067 53.6008 27.2V22.4C53.6008 21.4 53.8808 20.62 54.4408 20.06C55.0141 19.4867 55.8008 19.2 56.8008 19.2H60.8008C61.8008 19.2 62.5808 19.4867 63.1408 20.06C63.7141 20.62 64.0008 21.4 64.0008 22.4V26.1H57.1008V26.9C57.1008 27.1 57.1674 27.2667 57.3008 27.4C57.4341 27.5333 57.6008 27.6 57.8008 27.6C59.1208 27.6 61.0541 27.5 63.6008 27.3V29.8ZM72.1977 19.4H76.0977L72.6977 24.7L76.1977 30H72.2977L70.2977 26.8L68.2977 30H64.3977L67.8977 24.7L64.4977 19.4H68.3977L70.2977 22.6L72.1977 19.4ZM81.7039 25C81.6372 25.9333 81.3706 26.7 80.9039 27.3H84.4039V22.1H81.9039L81.7039 25ZM87.9039 19.4V27.3H89.4039V32.4H86.0839L85.8839 30H79.7239L79.5239 32.4H76.2039V27.3H77.5039C78.0372 26.6733 78.3372 25.9733 78.4039 25.2L78.8039 19.4H87.9039ZM101.613 27C101.613 28 101.326 28.7867 100.753 29.36C100.193 29.92 99.4125 30.2 98.4125 30.2H93.8125C92.8125 30.2 92.0258 29.92 91.4525 29.36C90.8925 28.7867 90.6125 28 90.6125 27V22.4C90.6125 21.4 90.8925 20.62 91.4525 20.06C92.0258 19.4867 92.8125 19.2 93.8125 19.2H98.4125C99.4125 19.2 100.193 19.4867 100.753 20.06C101.326 20.62 101.613 21.4 101.613 22.4V27ZM98.1125 22.7C98.1125 22.1667 97.8458 21.9 97.3125 21.9H94.9125C94.3792 21.9 94.1125 22.1667 94.1125 22.7V26.7C94.1125 27.2333 94.3792 27.5 94.9125 27.5H97.3125C97.8458 27.5 98.1125 27.2333 98.1125 26.7V22.7ZM102.81 27.4C105.357 27.6 107.357 27.7 108.81 27.7C109.01 27.7 109.177 27.6333 109.31 27.5C109.443 27.3667 109.51 27.2 109.51 27V26.7C109.51 26.5 109.443 26.3333 109.31 26.2C109.177 26.0667 109.01 26 108.81 26H104.41V23.5H108.41C108.61 23.5 108.777 23.4333 108.91 23.3C109.043 23.1667 109.11 23 109.11 22.8V22.6C109.11 22.4 109.043 22.2333 108.91 22.1C108.777 21.9667 108.61 21.9 108.41 21.9H103.01V19.4H109.61C110.503 19.4 111.223 19.6667 111.77 20.2C112.33 20.72 112.61 21.3067 112.61 21.96C112.61 23.2933 112.01 24.1067 110.81 24.4C111.41 24.5067 111.923 24.8 112.35 25.28C112.79 25.76 113.01 26.4267 113.01 27.28C113.01 28.1333 112.737 28.8333 112.19 29.38C111.643 29.9267 110.917 30.2 110.01 30.2C107.783 30.2 105.383 30.0667 102.81 29.8V27.4ZM125.206 27C125.206 28 124.92 28.7867 124.346 29.36C123.786 29.92 123.006 30.2 122.006 30.2H117.406C116.406 30.2 115.62 29.92 115.046 29.36C114.486 28.7867 114.206 28 114.206 27V22.4C114.206 21.4 114.486 20.62 115.046 20.06C115.62 19.4867 116.406 19.2 117.406 19.2H122.006C123.006 19.2 123.786 19.4867 124.346 20.06C124.92 20.62 125.206 21.4 125.206 22.4V27ZM121.706 22.7C121.706 22.1667 121.44 21.9 120.906 21.9H118.506C117.973 21.9 117.706 22.1667 117.706 22.7V26.7C117.706 27.2333 117.973 27.5 118.506 27.5H120.906C121.44 27.5 121.706 27.2333 121.706 26.7V22.7ZM132.904 22.1C132.197 22.1 131.397 22.2333 130.504 22.5V27.3H133.504C134.037 27.3 134.304 27.0333 134.304 26.5V22.8C134.304 22.6 134.237 22.4333 134.104 22.3C133.971 22.1667 133.804 22.1 133.604 22.1H132.904ZM130.504 30V33.4H127.004V19.4H130.104L130.304 20.4C130.931 19.9867 131.571 19.6867 132.224 19.5C132.891 19.3 133.451 19.2 133.904 19.2H134.804C135.711 19.2 136.437 19.4733 136.984 20.02C137.531 20.5667 137.804 21.2933 137.804 22.2V26.8C137.804 27.8 137.517 28.5867 136.944 29.16C136.384 29.72 135.604 30 134.604 30H130.504Z" fill="#262626"/>
<defs>
<linearGradient id="paint0_linear_154_9002" x1="16" y1="8" x2="16" y2="34" gradientUnits="userSpaceOnUse">
<stop stop-color="#40A9FF"/>
<stop offset="1" stop-color="#1890FF"/>
</linearGradient>
</defs>
</svg>
