<svg width="512" height="512" viewBox="0 0 512 512" fill="none" xmlns="http://www.w3.org/2000/svg">
<rect width="512" height="512" rx="160" fill="white"/>
<path d="M238 328C238 331.183 236.736 334.235 234.485 336.485C232.235 338.736 229.183 340 226 340H184C180.817 340 177.765 338.736 175.515 336.485C173.264 334.235 172 331.183 172 328C172 324.817 173.264 321.765 175.515 319.515C177.765 317.264 180.817 316 184 316H226C229.183 316 232.235 317.264 234.485 319.515C236.736 321.765 238 324.817 238 328ZM328 316H286C282.817 316 279.765 317.264 277.515 319.515C275.264 321.765 274 324.817 274 328C274 331.183 275.264 334.235 277.515 336.485C279.765 338.736 282.817 340 286 340H328C331.183 340 334.235 338.736 336.485 336.485C338.736 334.235 340 331.183 340 328C340 324.817 338.736 321.765 336.485 319.515C334.235 317.264 331.183 316 328 316ZM436 388C436 391.183 434.736 394.235 432.485 396.485C430.235 398.736 427.183 400 424 400H88C84.8174 400 81.7652 398.736 79.5147 396.485C77.2643 394.235 76 391.183 76 388C76 384.817 77.2643 381.765 79.5147 379.515C81.7652 377.264 84.8174 376 88 376H112V196C112 193.771 112.621 191.587 113.792 189.691C114.964 187.796 116.64 186.263 118.633 185.267C120.627 184.27 122.858 183.848 125.078 184.048C127.297 184.249 129.417 185.063 131.2 186.4L208 244V196C208 193.771 208.621 191.587 209.792 189.691C210.964 187.796 212.64 186.263 214.633 185.267C216.627 184.27 218.858 183.848 221.078 184.048C223.297 184.249 225.417 185.063 227.2 186.4L285.31 229.975L302.65 108.61C303.49 102.9 306.349 97.681 310.708 93.8994C315.068 90.1178 320.639 88.0247 326.41 88H353.59C359.361 88.0247 364.932 90.1178 369.292 93.8994C373.651 97.681 376.51 102.9 377.35 108.61L399.85 266.305C399.85 266.305 399.97 267.475 399.97 268V376H423.97C425.548 375.996 427.112 376.304 428.571 376.905C430.031 377.506 431.357 378.389 432.475 379.504C433.592 380.619 434.479 381.943 435.084 383.401C435.689 384.859 436 386.422 436 388ZM307.21 246.4L320.005 256H374.17L353.59 112H326.41L307.21 246.4ZM136 376H376V280H316C313.404 280 310.877 279.158 308.8 277.6L287.2 261.4L232 220V268C232 270.229 231.379 272.413 230.208 274.309C229.036 276.204 227.36 277.736 225.367 278.733C223.373 279.73 221.142 280.152 218.922 279.952C216.703 279.751 214.583 278.937 212.8 277.6L136 220V376Z" fill="url(#paint0_linear_184_6081)"/>
<defs>
<linearGradient id="paint0_linear_184_6081" x1="256" y1="88" x2="256" y2="400" gradientUnits="userSpaceOnUse">
<stop stop-color="#40A9FF"/>
<stop offset="1" stop-color="#1890FF"/>
</linearGradient>
</defs>
</svg>
